<?xml version="1.0" encoding="UTF-8" standalone="no"?>
<!-- Created with Inkscape (http://www.inkscape.org/) -->

<svg
   xmlns:dc="http://purl.org/dc/elements/1.1/"
   xmlns:cc="http://creativecommons.org/ns#"
   xmlns:rdf="http://www.w3.org/1999/02/22-rdf-syntax-ns#"
   xmlns:svg="http://www.w3.org/2000/svg"
   xmlns="http://www.w3.org/2000/svg"
   xmlns:sodipodi="http://sodipodi.sourceforge.net/DTD/sodipodi-0.dtd"
   xmlns:inkscape="http://www.inkscape.org/namespaces/inkscape"
   width="22"
   height="22"
   viewBox="0 0 21.999999 21.999999"
   id="svg2"
   version="1.1"
   inkscape:version="0.91 r13725"
   sodipodi:docname="exo-task-tray.svg"
   inkscape:export-filename="D:\Dropbox\art\exo-task-tray-22.png"
   inkscape:export-xdpi="90"
   inkscape:export-ydpi="90">
  <defs
     id="defs4">
    <inkscape:perspective
       sodipodi:type="inkscape:persp3d"
       inkscape:vp_x="18.498418 : 13.209708 : 1"
       inkscape:vp_y="0 : 1000 : 0"
       inkscape:vp_z="48.498416 : 13.209708 : 1"
       inkscape:persp3d-origin="33.498417 : 9.5430416 : 1"
       id="perspective4133" />
  </defs>
  <sodipodi:namedview
     id="base"
     pagecolor="#ffffff"
     bordercolor="#666666"
     borderopacity="1.0"
     inkscape:pageopacity="0.0"
     inkscape:pageshadow="2"
     inkscape:zoom="32"
     inkscape:cx="13.877613"
     inkscape:cy="11.16152"
     inkscape:document-units="px"
     inkscape:current-layer="layer1"
     showgrid="false"
     units="px"
     inkscape:window-width="2560"
     inkscape:window-height="1417"
     inkscape:window-x="-8"
     inkscape:window-y="-8"
     inkscape:window-maximized="1" />
  <metadata
     id="metadata7">
    <rdf:RDF>
      <cc:Work
         rdf:about="">
        <dc:format>image/svg+xml</dc:format>
        <dc:type
           rdf:resource="http://purl.org/dc/dcmitype/StillImage" />
        <dc:title></dc:title>
      </cc:Work>
    </rdf:RDF>
  </metadata>
  <g
     inkscape:label="Layer 1"
     inkscape:groupmode="layer"
     id="layer1"
     transform="translate(0,-1030.3622)">
    <path
       style="color:#000000;clip-rule:nonzero;display:inline;overflow:visible;visibility:visible;opacity:1;isolation:auto;mix-blend-mode:normal;color-interpolation:sRGB;color-interpolation-filters:linearRGB;solid-color:#000000;solid-opacity:1;fill:#000000;fill-opacity:1;fill-rule:evenodd;stroke:none;stroke-width:0.29999998;stroke-linecap:round;stroke-linejoin:round;stroke-miterlimit:4;stroke-dasharray:none;stroke-dashoffset:0;stroke-opacity:1;marker:none;marker-start:none;marker-mid:none;marker-end:none;color-rendering:auto;image-rendering:auto;shape-rendering:auto;text-rendering:auto;enable-background:accumulate"
       d="m 10.999999,1032.3482 -7.8604805,4.507 0,9.014 7.8604805,4.507 7.860481,-4.507 0,-9.014 -7.860481,-4.507 z m 0.01001,0.9599 0.851314,0.4907 -0.0034,0.01 0.0034,0 -0.846307,0.4907 -0.857992,-0.4941 0.852985,-0.4957 z m -2.6190483,1.5123 0.849647,0.4908 -0.0034,0.01 0.0034,0 -0.846309,0.4907 -0.856322,-0.4941 0.852984,-0.4974 z m 5.2397643,0 0.851316,0.4908 -0.0034,0.01 0.0034,0 -0.846308,0.4925 -0.857993,-0.4958 0.852985,-0.4958 z m -2.624055,0.5108 2.575647,1.4873 0,0.025 -2.562293,1.4906 -2.5990173,-1.5007 2.5856633,-1.5023 z m -5.2230717,1.0032 0.8513164,0.4908 -0.005,0.01 0.005,0 -0.8463086,0.4925 -0.8579926,-0.4958 0.8529848,-0.4958 z m 10.4761887,0 0.849647,0.4907 -0.0034,0.01 0.0034,0 -0.846308,0.4925 -0.857992,-0.4958 0.854653,-0.4958 z m -7.8554723,1.5107 0.851316,0.4907 -0.005,0.01 0.005,0 -0.846308,0.4907 -0.857993,-0.494 0.852985,-0.4958 z m 5.2347573,0 0.849645,0.4906 -0.0034,0.01 0.0034,0 -0.846307,0.4908 -0.856324,-0.4942 0.852986,-0.4957 z m -9.6115208,0.4807 0.8496464,0.4873 0,0.99 -0.8563233,-0.4909 0,-0.9814 0.00668,0 0,-0.01 z m 13.9298598,0.04 0.0034,0.9866 -0.851315,0.4907 -0.0034,-0.01 -0.0034,0.01 -0.0034,-0.9782 0.857993,-0.4958 z m -6.925703,0.9915 0.851316,0.4908 -0.005,0.01 0.005,0 -0.846308,0.4906 -0.857992,-0.4941 0.852984,-0.4974 z m -4.3817713,0.4808 0.847977,0.4874 0,0.9899 -0.856323,-0.4908 0,-0.9815 0.0084,0 0,-0.01 z m 8.6867573,0.042 0.0034,0.9866 -0.851315,0.4907 -0.0034,-0.01 -0.0034,0 -0.0034,-0.9782 0.857993,-0.4941 z m -6.0727173,1.4589 0.8479783,0.4875 0,0.9899 -0.8563243,-0.4908 0,-0.9816 0.0084,0 0,-0.01 z m -5.2364255,0.022 0.8496464,0.4857 0,0.9915 -0.8563233,-0.4908 0,-0.9832 0.00668,0 0,0 z m 1.7677317,0.016 2.5723078,1.4757 0,2.9996 -2.5940079,-1.4873 0,-2.9747 0.0217,-0.012 0,0 z m 12.1688061,0 0.0034,0.9865 -0.849647,0.4908 -0.0034,-0.01 -0.005,0 -0.0016,-0.9782 0.856324,-0.4941 z m -1.75271,0.01 0.0084,2.9897 -2.575647,1.4873 -0.0217,-0.013 -0.01001,-2.9646 2.599015,-1.499 z m -3.502078,0.01 0.0034,0.9882 -0.851315,0.4908 -0.0034,-0.01 -0.0034,0 -0.0034,-0.9782 0.857992,-0.4957 z m -3.4453243,2.9779 0.8479783,0.4858 0,0.9916 -0.8563243,-0.4908 0,-0.9832 0.0084,0 0,0 z m -5.2364255,0.013 0.8496464,0.4857 0,0.9899 -0.8563233,-0.4907 0,-0.9816 0.00668,0 0,0 z m 13.9382068,0.02 0.0034,0.9865 -0.851316,0.4908 -0.0034,-0.01 -0.0034,0 -0.0034,-0.9782 0.857993,-0.4941 z m -5.249781,0 0.0034,0.9865 -0.849647,0.4908 -0.0034,-0.01 -0.005,0.01 -0.0016,-0.9782 0.856324,-0.4958 z m -6.0660403,1.489 0.847977,0.4857 0,0.9916 -0.856323,-0.4908 0,-0.9815 0.0084,0 0,-0.01 z m 8.6951043,0.02 0.0034,0.9866 -0.851315,0.4907 -0.0034,-0.01 -0.0034,0.01 -0.0034,-0.9782 0.857993,-0.4958 z m -6.0810643,1.4806 0.8479783,0.4859 0,0.9898 -0.8563243,-0.4907 0,-0.9817 0.0084,0 0,0 z m 3.4536703,0.037 0.0016,0.9865 -0.849646,0.4908 -0.0034,-0.01 -0.0034,0.01 -0.0034,-0.9782 0.857993,-0.4957 z"
       id="path4149"
       inkscape:connector-curvature="0" />
  </g>
</svg>
