<?xml version="1.0" encoding="UTF-8" standalone="no"?>
<!-- Created with Inkscape (http://www.inkscape.org/) -->

<svg
   xmlns:dc="http://purl.org/dc/elements/1.1/"
   xmlns:cc="http://creativecommons.org/ns#"
   xmlns:rdf="http://www.w3.org/1999/02/22-rdf-syntax-ns#"
   xmlns:svg="http://www.w3.org/2000/svg"
   xmlns="http://www.w3.org/2000/svg"
   xmlns:sodipodi="http://sodipodi.sourceforge.net/DTD/sodipodi-0.dtd"
   xmlns:inkscape="http://www.inkscape.org/namespaces/inkscape"
   width="22"
   height="22"
   viewBox="0 0 21.999999 21.999999"
   id="svg2"
   version="1.1"
   inkscape:version="0.91 r13725"
   sodipodi:docname="exo.svg"
   inkscape:export-filename="D:\Dropbox\art\exo.png"
   inkscape:export-xdpi="7206.7788"
   inkscape:export-ydpi="7206.7788">
  <defs
     id="defs4">
    <inkscape:perspective
       sodipodi:type="inkscape:persp3d"
       inkscape:vp_x="18.498418 : 13.209708 : 1"
       inkscape:vp_y="0 : 1000 : 0"
       inkscape:vp_z="48.498416 : 13.209708 : 1"
       inkscape:persp3d-origin="33.498417 : 9.5430416 : 1"
       id="perspective4133" />
  </defs>
  <sodipodi:namedview
     id="base"
     pagecolor="#ffffff"
     bordercolor="#666666"
     borderopacity="1.0"
     inkscape:pageopacity="0.0"
     inkscape:pageshadow="2"
     inkscape:zoom="32"
     inkscape:cx="19.611988"
     inkscape:cy="9.9115204"
     inkscape:document-units="px"
     inkscape:current-layer="layer1"
     showgrid="false"
     units="px"
     inkscape:window-width="2560"
     inkscape:window-height="1417"
     inkscape:window-x="-8"
     inkscape:window-y="-8"
     inkscape:window-maximized="1" />
  <metadata
     id="metadata7">
    <rdf:RDF>
      <cc:Work
         rdf:about="">
        <dc:format>image/svg+xml</dc:format>
        <dc:type
           rdf:resource="http://purl.org/dc/dcmitype/StillImage" />
        <dc:title></dc:title>
      </cc:Work>
    </rdf:RDF>
  </metadata>
  <g
     inkscape:label="Layer 1"
     inkscape:groupmode="layer"
     id="layer1"
     transform="translate(0,-1030.3622)">
    <path
       style="color:#000000;clip-rule:nonzero;display:inline;overflow:visible;visibility:visible;opacity:1;isolation:auto;mix-blend-mode:normal;color-interpolation:sRGB;color-interpolation-filters:linearRGB;solid-color:#000000;solid-opacity:1;fill:#800000;fill-opacity:1;fill-rule:evenodd;stroke:none;stroke-width:0.29999998;stroke-linecap:round;stroke-linejoin:round;stroke-miterlimit:4;stroke-dasharray:none;stroke-dashoffset:0;stroke-opacity:1;marker:none;marker-start:none;marker-mid:none;marker-end:none;color-rendering:auto;image-rendering:auto;shape-rendering:auto;text-rendering:auto;enable-background:accumulate"
       d="m 10.999999,1030.4211 -9.5410158,5.4706 0,10.941 9.5410158,5.4706 9.541016,-5.4706 0,-10.941 -9.541016,-5.4706 z m 0.01216,1.1651 1.033322,0.5956 -0.0041,0.01 0.0041,0 -1.027244,0.5956 -1.0414272,-0.5997 1.0353492,-0.6017 z m -3.1789882,1.8356 1.031297,0.5957 -0.0041,0.012 0.0041,0 -1.027245,0.5956 -1.039401,-0.5997 1.035349,-0.6038 z m 6.3600022,0 1.033323,0.5957 -0.0041,0.01 0.0041,0 -1.027245,0.5977 -1.041428,-0.6017 1.03535,-0.6018 z m -3.185067,0.62 3.126309,1.8053 0,0.03 -3.110099,1.8093 -3.1546752,-1.8215 3.1384652,-1.8235 z m -6.3397401,1.2177 1.0333229,0.5957 -0.00608,0.01 0.00608,0 -1.0272445,0.5977 -1.0414276,-0.6017 1.0353492,-0.6018 z m 12.7159511,0 1.031298,0.5956 -0.0041,0.01 0.0041,0 -1.027246,0.5977 -1.041427,-0.6018 1.037375,-0.6017 z m -9.5349372,1.8336 1.033323,0.5957 -0.0061,0.01 0.0061,0 -1.027245,0.5957 -1.041427,-0.5997 1.035349,-0.6018 z m 6.3539242,0 1.031296,0.5956 -0.0041,0.01 0.0041,0 -1.027244,0.5957 -1.039402,-0.5998 1.03535,-0.6017 z m -11.6664201,0.5835 1.0312969,0.5916 0,1.2015 -1.0394014,-0.5957 0,-1.1913 0.0081,0 0,-0.01 z m 16.9080011,0.049 0.0041,1.1975 -1.033322,0.5956 -0.0041,-0.01 -0.0041,0.01 -0.0041,-1.1873 1.041427,-0.6018 z m -8.406387,1.2035 1.033323,0.5957 -0.0061,0.012 0.0061,0 -1.027244,0.5956 -1.041428,-0.5997 1.035349,-0.6038 z m -5.3185741,0.5836 1.0292709,0.5916 0,1.2015 -1.0394015,-0.5957 0,-1.1914 0.010131,0 0,-0.01 z m 10.5439471,0.051 0.0041,1.1974 -1.033323,0.5957 -0.0041,-0.01 -0.0041,0 -0.0041,-1.1873 1.041428,-0.5997 z m -7.3710372,1.7708 1.029271,0.5917 0,1.2015 -1.039402,-0.5957 0,-1.1914 0.01013,0 0,-0.01 z m -6.3559499,0.026 1.0312969,0.5896 0,1.2035 -1.0394014,-0.5957 0,-1.1934 0.0081,0 0,0 z m 2.1456647,0.02 3.1222562,1.7911 0,3.641 -3.1485957,-1.8053 0,-3.6106 0.02634,-0.014 0,0 z m 14.7704414,0 0.0041,1.1974 -1.031297,0.5957 -0.0041,-0.01 -0.0061,0 -0.002,-1.1873 1.039402,-0.5997 z m -2.127431,0.01 0.01013,3.6288 -3.126308,1.8053 -0.02634,-0.016 -0.01216,-3.5984 3.154673,-1.8195 z m -4.250807,0.01 0.0041,1.1995 -1.033323,0.5957 -0.0041,-0.01 -0.0041,0 -0.0041,-1.1873 1.041427,-0.6018 z m -4.1819182,3.6146 1.029271,0.5896 0,1.2036 -1.039402,-0.5957 0,-1.1934 0.01013,0 0,0 z m -6.3559499,0.016 1.0312969,0.5896 0,1.2015 -1.0394014,-0.5956 0,-1.1914 0.0081,0 0,0 z m 16.9181321,0.024 0.0041,1.1974 -1.033323,0.5957 -0.0041,-0.01 -0.0041,0 -0.0041,-1.1873 1.041428,-0.5997 z m -6.37216,0 0.0041,1.1974 -1.031297,0.5957 -0.0041,-0.01 -0.0061,0.01 -0.002,-1.1873 1.039401,-0.6018 z m -7.3629321,1.8073 1.0292709,0.5896 0,1.2035 -1.0394015,-0.5957 0,-1.1913 0.010131,0 0,-0.01 z m 10.5540771,0.024 0.0041,1.1975 -1.033323,0.5956 -0.0041,-0.01 -0.0041,0.01 -0.0041,-1.1873 1.041427,-0.6018 z m -7.3811672,1.7972 1.029271,0.5896 0,1.2015 -1.039402,-0.5957 0,-1.1914 0.01013,0 0,0 z m 4.1920492,0.045 0.002,1.1974 -1.031297,0.5957 -0.0041,-0.01 -0.0041,0.01 -0.0041,-1.1873 1.041428,-0.6017 z"
       id="path4149"
       inkscape:connector-curvature="0" />
  </g>
</svg>
